<?xml version="1.0" encoding="utf-8"?>
<!-- Generator: Adobe Illustrator 24.3.0, SVG Export Plug-In . SVG Version: 6.00 Build 0)  -->
<svg version="1.1" id="Layer_1" xmlns="http://www.w3.org/2000/svg" xmlns:xlink="http://www.w3.org/1999/xlink" x="0px" y="0px"
	 viewBox="0 0 717 611" style="enable-background:new 0 0 717 611;" xml:space="preserve">
<style type="text/css">
	.st0{fill:#FFFFFF;}
</style>
<ellipse cx="358.5" cy="305.5" rx="358.5" ry="305.5"/>
<path class="st0" d="M511,378.6c-41.4,115.8-187.5,154.7-271,59c-98.5-105.8-39.5-316.8,117.5-317.2C483.4,119.3,556,270,511,378.6z
	 M447.8,200.1c-15.5-70.2-60.5-87.3-123.5-73.7c-84.3,21.9-70.4,219.7-56.5,291c7.7,32,25.1,59.5,56.5,68.8
	c40.1,10.6,90.8,3.9,111.3-37C466.5,388.6,460.5,261.5,447.8,200.1L447.8,200.1z"/>
</svg>
